<?xml version="1.0" standalone="no"?>
<!DOCTYPE svg PUBLIC "-//W3C//DTD SVG 20010904//EN"
 "http://www.w3.org/TR/2001/REC-SVG-20010904/DTD/svg10.dtd">
<svg version="1.0" xmlns="http://www.w3.org/2000/svg"
 width="1280.000000pt" height="1197.000000pt" viewBox="0 0 1280.000000 1197.000000"
 preserveAspectRatio="xMidYMid meet">
<g transform="translate(0.000000,1197.000000) scale(0.100000,-0.100000)"
fill="#000000" stroke="none">
<path d="M4748 11920 c-62 -48 -66 -54 -78 -110 l-13 -60 -39 6 c-37 6 -43 4
-85 -37 -25 -24 -54 -62 -64 -84 -25 -53 -25 -147 0 -202 l19 -41 -24 -23
c-33 -31 -80 -129 -100 -208 -11 -44 -15 -96 -12 -175 l3 -111 58 -115 c31
-63 57 -127 57 -142 0 -15 -11 -44 -25 -64 -13 -20 -28 -52 -31 -72 -19 -100
55 -343 185 -607 161 -326 334 -587 461 -693 l67 -56 -18 -41 c-23 -50 -24
-97 -2 -161 31 -90 83 -166 274 -395 122 -146 166 -211 208 -311 25 -62 26
-68 26 -282 l0 -219 -30 -22 c-20 -14 -63 -27 -124 -38 -125 -21 -195 -57
-317 -162 -199 -171 -311 -246 -349 -231 -9 3 -26 27 -38 53 -32 71 -30 184 7
283 87 237 89 243 90 330 1 117 -27 177 -132 279 -125 122 -243 180 -382 188
-67 4 -180 -11 -231 -32 -13 -5 -15 5 -11 78 5 99 -12 170 -64 265 l-35 64 31
34 c34 39 38 75 16 129 -11 25 -21 34 -42 37 -20 2 -30 11 -37 31 -7 23 -4 32
22 63 17 19 31 40 31 47 -1 21 -24 55 -77 111 l-52 55 1 78 c2 58 -2 86 -15
111 l-18 32 36 21 c19 12 38 31 41 44 8 31 -24 241 -43 282 -18 38 -59 59
-137 68 l-58 8 5 -29 c3 -16 9 -48 12 -71 6 -38 10 -43 34 -43 45 0 70 -36 29
-42 -37 -5 -47 -43 -48 -193 l-2 -140 46 -123 c66 -175 70 -204 50 -342 -13
-93 -14 -126 -5 -170 11 -54 17 -66 75 -149 l29 -41 -22 -51 c-19 -44 -21 -55
-10 -87 6 -20 25 -57 42 -81 l30 -44 -52 5 c-34 3 -77 19 -129 47 -42 23 -120
63 -172 89 -88 43 -100 47 -170 47 -67 0 -81 -4 -134 -34 l-59 -34 119 -41
c68 -24 144 -58 177 -80 l58 -39 -74 -47 c-87 -56 -104 -76 -148 -175 -18 -41
-36 -75 -40 -75 -18 0 -109 124 -159 215 l-53 98 -19 -49 c-43 -108 -20 -217
70 -330 l41 -52 -42 -16 c-24 -9 -49 -16 -57 -16 -8 0 -42 23 -74 50 -78 64
-123 75 -277 66 -144 -8 -175 -1 -334 72 -113 52 -126 56 -230 64 -60 5 -135
7 -165 6 -49 -3 -56 -6 -68 -31 -11 -23 -16 -26 -28 -16 -8 6 -14 24 -14 40 0
29 -5 32 -70 44 -19 4 -43 9 -52 11 -16 5 -17 -2 -11 -63 7 -82 31 -128 76
-142 61 -19 167 -42 219 -48 50 -6 52 -5 83 31 l32 38 34 -21 c26 -16 51 -21
102 -21 l67 0 69 -70 c79 -80 106 -88 152 -44 26 25 31 26 59 14 21 -9 30 -19
30 -35 0 -28 25 -50 70 -62 41 -11 54 -8 97 24 l31 24 62 -40 c122 -79 248
-102 359 -66 l24 7 -7 -88 c-22 -290 -19 -339 28 -439 55 -117 185 -249 306
-308 58 -29 74 -32 155 -32 81 0 97 3 159 32 37 18 105 55 150 83 159 95 244
116 350 86 l58 -17 -7 -37 c-12 -66 -51 -149 -138 -294 -83 -138 -115 -206
-137 -294 -5 -22 -21 -51 -34 -63 -23 -22 -30 -23 -214 -21 -302 1 -363 29
-657 295 -226 205 -323 265 -428 265 -32 0 -71 -7 -87 -15 -28 -15 -29 -14
-64 33 -75 102 -182 191 -401 335 -452 296 -847 438 -972 349 -44 -31 -71 -28
-160 20 -174 93 -167 91 -293 92 -161 0 -280 -34 -352 -101 l-27 -25 -45 22
c-58 28 -148 29 -208 2 -60 -26 -131 -106 -122 -135 3 -12 7 -26 8 -31 0 -6
-27 -16 -60 -24 -57 -12 -65 -17 -113 -76 -65 -80 -66 -96 -7 -96 48 0 43 8
62 -90 5 -29 7 -27 85 70 43 55 82 100 85 100 3 0 28 -7 55 -16 71 -23 137
-15 202 26 134 85 127 83 211 66 94 -20 223 -20 391 -1 72 8 163 15 202 15 71
0 73 -1 79 -27 16 -74 15 -73 149 -135 72 -32 365 -167 653 -300 l523 -241 22
-46 22 -46 109 -27 c134 -33 202 -72 434 -251 191 -147 282 -209 331 -226 19
-6 75 -11 125 -11 75 0 100 -4 142 -24 49 -23 84 -57 84 -83 0 -6 4 -23 10
-38 l10 -25 40 25 c22 14 52 25 67 25 24 0 31 -8 52 -55 l23 -55 52 42 c28 24
54 47 58 53 9 12 11 9 33 -50 24 -65 95 -206 138 -274 l34 -54 -74 -71 c-103
-97 -102 -97 -205 -90 -48 4 -102 4 -121 0 l-35 -6 15 -51 c8 -27 12 -56 10
-63 -3 -8 -60 -42 -127 -77 -121 -64 -122 -65 -221 -181 -123 -146 -144 -199
-169 -433 -7 -61 -25 -190 -41 -287 -16 -97 -29 -208 -29 -246 0 -86 19 -116
147 -225 98 -84 227 -222 613 -657 289 -325 284 -319 393 -500 119 -199 154
-247 198 -277 33 -22 44 -25 59 -15 54 33 268 -197 560 -603 157 -218 260
-346 322 -398 72 -61 104 -109 138 -213 26 -77 41 -103 86 -154 29 -33 57 -72
60 -85 3 -14 1 -53 -5 -88 -20 -116 -18 -123 88 -340 88 -180 194 -356 264
-441 30 -37 52 -30 76 24 25 56 16 84 -40 131 l-48 41 21 40 c30 57 21 129
-31 244 -23 51 -41 105 -41 121 0 46 -19 91 -77 182 -58 93 -63 117 -32 167
l20 33 -58 58 c-32 32 -98 108 -147 168 -49 61 -105 127 -125 148 l-35 37 33
0 c38 0 37 7 -8 100 -21 44 -52 78 -161 175 -336 298 -525 509 -990 1100 -369
470 -463 579 -719 835 -101 102 -183 190 -182 195 12 42 38 184 72 384 43 252
73 387 115 503 44 120 163 348 183 348 4 0 28 -18 55 -40 26 -22 51 -40 55
-40 3 0 44 47 91 105 47 57 87 104 90 104 3 1 45 -33 93 -74 89 -76 107 -86
107 -61 0 7 9 25 21 40 15 19 20 37 17 61 -2 19 -1 35 2 35 3 0 24 -18 45 -41
114 -118 267 -219 422 -279 l90 -35 6 -85 c4 -47 10 -116 13 -153 l7 -68 -55
-52 c-31 -29 -63 -64 -72 -78 -15 -25 -15 -26 20 -60 66 -63 67 -69 42 -234
l-21 -146 27 -181 c35 -225 62 -295 236 -599 43 -74 118 -212 167 -305 128
-244 169 -303 229 -335 27 -15 90 -37 139 -49 50 -13 161 -52 247 -87 244 -98
896 -381 947 -411 25 -14 119 -75 208 -134 227 -152 290 -177 314 -124 10 21
14 23 50 15 140 -32 325 -116 620 -282 274 -154 391 -212 499 -247 106 -34
130 -49 231 -147 67 -64 160 -123 195 -123 22 0 74 -69 126 -165 52 -95 59
-104 164 -188 235 -190 375 -287 548 -381 l68 -37 -6 38 c-21 112 -52 158
-115 169 -64 11 -68 13 -81 62 -26 96 -48 126 -165 226 -44 37 -105 97 -135
133 -36 43 -89 88 -155 132 -106 70 -139 108 -150 169 -6 36 -9 39 -72 60 -56
20 -419 186 -432 198 -3 3 6 12 19 21 l23 16 -39 34 -39 33 130 -53 c72 -30
279 -118 460 -195 182 -78 369 -152 416 -166 315 -90 697 -94 1104 -10 156 32
363 92 497 144 l106 41 11 47 c78 339 91 817 30 1147 -63 339 -130 490 -408
915 -96 146 -255 391 -354 545 -323 503 -409 625 -614 870 -191 230 -594 620
-800 774 -261 195 -538 275 -833 242 -95 -11 -503 -109 -734 -176 -186 -54
-367 -138 -467 -216 -20 -16 -39 -29 -42 -29 -3 0 4 18 15 41 77 159 78 399 3
607 -52 143 -176 382 -301 580 -41 64 -42 69 -6 43 57 -40 122 -58 190 -52
l62 6 -54 90 -54 90 28 6 c16 4 91 14 167 24 76 10 140 20 142 21 2 2 -11 25
-28 52 -17 27 -31 51 -31 54 0 12 264 17 412 8 226 -15 351 -32 743 -105 509
-94 485 -91 495 -75 5 8 11 12 13 10 2 -3 38 -56 81 -117 178 -260 356 -465
816 -943 498 -517 693 -754 915 -1109 51 -81 67 -99 126 -137 37 -24 70 -44
73 -44 4 0 11 12 17 27 l10 27 32 -40 c18 -21 74 -84 126 -139 51 -55 117
-131 146 -169 l53 -70 50 3 c65 3 104 -15 177 -79 74 -65 134 -104 194 -127
25 -9 87 -43 136 -74 129 -83 176 -102 268 -107 l78 -5 19 -37 c32 -63 62 -80
141 -80 61 0 69 2 69 19 0 20 -128 147 -235 232 -101 80 -400 288 -432 300
-16 6 -73 19 -127 30 -121 25 -165 46 -199 98 -28 42 -72 75 -180 135 -91 50
-128 84 -184 169 -33 50 -145 169 -369 392 -304 302 -419 432 -462 523 -15 30
-14 33 3 45 46 34 -9 102 -230 282 -187 153 -214 181 -521 545 -336 397 -401
478 -476 595 -74 115 -120 160 -180 175 -24 6 -59 15 -78 20 -19 5 -159 34
-310 65 -151 30 -327 67 -390 80 -223 48 -291 50 -498 20 -182 -26 -183 -26
-318 -90 -148 -71 -151 -71 -236 -29 l-47 24 -21 -30 c-11 -16 -30 -49 -41
-74 -28 -64 -56 -81 -157 -100 -48 -9 -96 -19 -107 -22 -16 -4 -29 8 -65 58
-98 140 -288 302 -506 430 l-105 62 35 14 c20 8 36 20 36 27 0 7 10 24 21 39
12 15 20 28 18 30 -2 1 -52 22 -111 46 -60 24 -108 47 -108 50 0 4 23 62 50
130 28 68 47 127 43 130 -5 4 -34 17 -65 30 -32 12 -58 26 -58 30 0 4 37 63
82 131 97 147 259 315 433 449 182 139 369 287 393 310 l22 21 168 -55 c324
-106 521 -151 1209 -276 711 -129 978 -197 1420 -361 132 -49 167 -55 257 -43
46 7 46 7 31 30 -8 13 -15 25 -15 27 0 7 414 -82 472 -102 34 -12 62 -20 63
-18 2 1 10 16 19 34 25 50 42 54 178 47 110 -6 128 -5 173 14 31 12 85 23 140
27 143 9 195 33 240 109 9 16 15 15 67 -9 53 -24 59 -25 92 -11 40 17 87 93
66 106 -6 4 -60 14 -118 21 -111 15 -557 18 -643 5 -30 -4 -63 -21 -104 -52
-91 -70 -116 -78 -178 -61 -90 25 -116 27 -195 12 -110 -21 -139 -19 -260 19
-121 39 -257 66 -482 96 -369 48 -571 91 -733 154 -73 28 -82 35 -87 61 -4 25
-14 33 -62 53 -48 19 -89 24 -250 33 -258 13 -276 16 -708 120 -538 129 -709
175 -845 226 -66 24 -143 47 -170 50 -66 7 -113 -17 -265 -133 -63 -49 -167
-124 -230 -168 -134 -92 -223 -164 -266 -215 -17 -20 -55 -97 -87 -179 l-57
-142 0 -139 0 -139 -27 -10 c-65 -25 -71 -24 -77 5 -3 15 -5 71 -4 124 1 93 0
98 -35 160 -19 35 -95 147 -167 249 -199 280 -228 333 -255 478 -8 46 -18 88
-21 94 -4 6 -25 18 -48 29 l-41 18 -264 633 c-146 348 -272 649 -282 668 -14
29 -24 36 -65 45 l-48 10 2 55 c2 30 12 120 24 200 24 163 29 397 10 443 -14
32 2 71 65 159 48 66 64 129 51 194 -18 87 -20 83 86 164 l99 75 -59 13 -59
13 3 44 c4 39 1 45 -15 45 -10 0 -49 -23 -85 -50z m1186 -7297 c238 -81 319
-97 501 -98 141 0 168 3 229 23 74 25 154 63 198 93 14 11 28 19 31 19 3 0 -9
-33 -28 -72 -40 -87 -79 -221 -100 -341 -20 -117 -65 -669 -65 -794 1 -397
157 -686 533 -991 454 -367 910 -644 1380 -838 65 -27 114 -50 109 -52 -14 -4
-336 105 -474 162 -207 85 -378 166 -868 413 -505 255 -681 333 -972 431 -133
45 -194 70 -188 77 6 7 -38 100 -116 250 -352 678 -439 879 -522 1208 -18 71
-19 77 -4 73 53 -15 104 -27 107 -24 1 2 -8 68 -21 148 -12 80 -23 155 -23
166 l-1 22 93 -24 c123 -32 118 -32 102 19 -7 23 -16 53 -19 67 -6 27 -60 88
-116 133 l-35 27 70 -26 c39 -15 128 -46 199 -71z"/>
</g>
</svg>
